Coordinates
version=1
nRows=19
nColumns=24
inDegrees=yes

Units are S.I. units (second, meters, Newtons, ...)
Angles are in degrees.

endheader
time	pelvis_tilt	pelvis_list	pelvis_rotation	pelvis_tx	pelvis_ty	pelvis_tz	hip_flexion_r	hip_adduction_r	hip_rotation_r	knee_angle_r	ankle_angle_r	subtalar_angle_r	mtp_angle_r	hip_flexion_l	hip_adduction_l	hip_rotation_l	knee_angle_l	ankle_angle_l	subtalar_angle_l	mtp_angle_l	lumbar_extension	lumbar_bending	lumbar_rotation
      4.48000000	      0.54138117	      4.56693390	      9.07211502	      0.66847686	      0.89086150	     -0.17239081	     31.53635820	     -5.80773997	    -12.38155965	    -13.65527628	      4.91527731	     -1.26627996	      0.00000000	    -27.60384027	      4.47937634	      5.78327863	    -10.87276909	     12.08333076	     -8.31686160	      0.00000000	    -28.30091561	     -1.93449370	    -15.60059420
      4.49000000	      0.71139371	      3.87510277	      8.93244491	      0.68674694	      0.88977842	     -0.17168914	     32.03192379	     -4.88411918	    -11.19029225	    -16.36554768	      2.83435993	     -4.22315136	      0.00000000	    -27.73888313	      3.64411602	      4.85340202	    -12.60727715	     10.34506836	     -7.91535972	      0.00000000	    -28.20991244	     -1.08299657	    -15.10891938
      4.50000000	      0.90505160	      3.08560970	      8.75232590	      0.70525177	      0.88919656	     -0.17088243	     32.42701013	     -3.85523123	    -10.33169920	    -19.01761267	      0.89061275	     -6.74495098	      0.00000000	    -27.66783880	      2.71219577	      3.59613252	    -14.65255418	      8.23357924	     -7.38865823	      0.00000000	    -28.11287829	     -0.14775163	    -14.53618600
      4.51000000	      1.12469281	      2.24369342	      8.52187990	      0.72381495	      0.88907194	     -0.17007334	     32.70503111	     -2.79119287	     -9.80743529	    -21.59396372	     -0.58615394	     -8.60269122	      0.00000000	    -27.38430065	      1.73251266	      2.16320382	    -17.00817092	      5.69919434	     -6.89957083	      0.00000000	    -28.05177520	      0.84565217	    -13.94068459
      4.52000000	      1.35178437	      1.37519684	      8.27751012	      0.74234504	      0.88934911	     -0.16927802	     32.81848087	     -1.73177445	     -9.58791417	    -23.98513478	     -1.27270680	     -9.78377320	      0.00000000	    -26.82660007	      0.69847085	      0.60438780	    -19.72761933	      2.71320805	     -6.53386865	      0.00000000	    -28.02026296	      1.86469332	    -13.34915700
      4.53000000	      1.50705503	      0.50525536	      8.15380908	      0.76065891	      0.88996872	     -0.16872571	     32.80926136	     -0.78660367	     -9.71521022	    -26.13845671	     -1.04676268	    -10.25904618	      0.00000000	    -25.87314304	     -0.40856933	     -0.78779442	    -22.82635353	     -0.73484633	     -6.50438217	      0.00000000	    -27.94145980	      2.94346653	    -12.92724472
      4.54000000	      1.63194971	     -0.42964486	      7.98224108	      0.77872527	      0.89086212	     -0.16794608	     32.64225571	      0.26310958	     -9.91852412	    -27.96295480	     -0.32349807	    -10.50650478	      0.00000000	    -24.59311363	     -1.62582132	     -2.18967055	    -26.25267717	     -4.50620774	     -6.64972555	      0.00000000	    -27.86473423	      4.03209641	    -12.41321162
      4.55000000	      1.68267151	     -1.42419144	      7.88616920	      0.79637179	      0.89193624	     -0.16721568	     32.35172979	      1.33670632	    -10.28712889	    -29.42817250	      0.91559314	    -10.50270224	      0.00000000	    -22.91221842	     -2.96015862	     -3.32707713	    -30.02691972	     -8.49808407	     -7.23809314	      0.00000000	    -27.75201037	      5.19491211	    -11.92917755
      4.56000000	      1.55430124	     -2.31027790	      7.97743792	      0.81332901	      0.89306457	     -0.16682180	     32.10239823	      2.17314927	    -10.86042377	    -30.65288239	      2.59655392	    -10.16916836	      0.00000000	    -20.71322608	     -4.20476834	     -3.85272447	    -34.09394812	    -12.71769067	     -8.46326870	      0.00000000	    -27.50317262	      6.28535798	    -11.65796600
      4.57000000	      1.25558453	     -3.25804514	      8.19442128	      0.82966239	      0.89411571	     -0.16654468	     31.89690784	      3.01496566	    -11.53918359	    -31.54491992	      4.24762606	     -9.84879425	      0.00000000	    -18.01419133	     -5.50159271	     -3.94132776	    -38.43832802	    -16.69973666	     -9.95525907	      0.00000000	    -27.10069291	      7.45273727	    -11.44846928
      4.58000000	      0.65630007	     -4.15207176	      8.44872836	      0.84532137	      0.89479334	     -0.16643605	     31.93219962	      3.73473529	    -12.26077410	    -32.22914465	      5.94948865	     -9.38431458	      0.00000000	    -14.74089459	     -6.61696522	     -3.57905055	    -42.96515907	    -20.19198184	    -11.55927091	      0.00000000	    -26.39508308	      8.53502625	    -11.22331599
      4.59000000	      0.13452933	     -5.07902145	      8.79094372	      0.86050014	      0.89564675	     -0.16644004	     31.76498127	      4.50026262	    -13.02608923	    -32.58690978	      7.46325170	     -9.10829060	      0.00000000	    -11.38059628	     -7.69189274	     -2.89965107	    -47.46650191	    -23.07304171	    -13.19559615	      0.00000000	    -25.79294061	      9.66268369	    -11.01124337
      4.60000000	     -0.52656501	     -5.94472557	      9.05864005	      0.87512746	      0.89634250	     -0.16647675	     31.70210405	      5.22222854	    -13.67250446	    -32.79725388	      8.83019107	     -8.70690924	      0.00000000	     -7.76267147	     -8.53657958	     -2.06341249	    -51.89914059	    -25.02792585	    -14.60599549	      0.00000000	    -25.08584336	     10.67470026	    -10.75683645
      4.61000000	     -1.06550741	     -6.74383116	      9.27975562	      0.88947204	      0.89733586	     -0.16651391	     31.41541372	      5.95783985	    -14.22833158	    -32.78137313	     10.04660476	     -8.40174517	      0.00000000	     -4.26662461	     -9.20760477	     -1.17420340	    -56.07276640	    -26.03315597	    -15.75646132	      0.00000000	    -24.55214305	     11.57923868	    -10.35698163
      4.62000000	     -1.36856930	     -7.46101285	      9.47488147	      0.90363691	      0.89890344	     -0.16655270	     30.77609056	      6.71500902	    -14.68225623	    -32.54237440	     11.05572919	     -8.17663295	      0.00000000	     -1.05889592	     -9.74107301	     -0.31217377	    -59.88923917	    -26.14133430	    -16.60947252	      0.00000000	    -24.33742461	     12.38207414	     -9.84702316
      4.63000000	     -1.71981342	     -7.99189114	      9.48716777	      0.91764574	      0.90061406	     -0.16638907	     30.12408133	      7.39386419	    -14.85820840	    -32.23095854	     12.00220997	     -7.88198675	      0.00000000	      2.09176180	    -10.00059183	      0.37290993	    -63.33851059	    -25.20383969	    -16.95346945	      0.00000000	    -24.12257616	     12.87339966	     -9.17158920
      4.64000000	     -1.93378113	     -8.34641127	      9.38778737	      0.93163429	      0.90284262	     -0.16605192	     29.22218380	      8.02808175	    -14.77649686	    -31.77873020	     12.80995593	     -7.64505065	      0.00000000	      4.96120140	    -10.07662941	      0.86275848	    -66.32290013	    -23.63208364	    -16.97903552	      0.00000000	    -24.11735883	     13.10702745	     -8.37489027
      4.65000000	     -2.04840184	     -8.54875409	      9.23500550	      0.94558661	      0.90551772	     -0.16561678	     28.11273504	      8.59481983	    -14.50386214	    -31.18537587	     13.48865470	     -7.45900888	      0.00000000	      7.61330698	    -10.01218387	      1.20281698	    -68.85470844	    -21.59378888	    -16.69859773	      0.00000000	    -24.26351872	     13.13493249	     -7.55518879
      4.66000000	     -2.12593660	     -8.62415681	      9.05332190	      0.95952349	      0.90849331	     -0.16510265	     26.86765834	      9.08580506	    -14.07946891	    -30.45600745	     14.04037912	     -7.34420785	      0.00000000	     10.12949455	     -9.82762127	      1.43952785	    -70.95463542	    -19.28166217	    -16.13820189	      0.00000000	    -24.46265004	     12.98178112	     -6.73258325
